<?xml version="1.0" encoding="UTF-8" standalone="no"?>
<!DOCTYPE svg PUBLIC "-//W3C//DTD SVG 1.1//EN" "http://www.w3.org/Graphics/SVG/1.1/DTD/svg11.dtd">
<svg version="1.1" xmlns="http://www.w3.org/2000/svg" xmlns:xlink="http://www.w3.org/1999/xlink" preserveAspectRatio="xMidYMid meet" viewBox="0 0 640 640" width="640" height="640"><defs><path d="M506.6 33.63C472.79 54.38 448.5 86.78 435.76 106.66C469.45 131.39 494.39 166.95 505.27 208.09C588.07 140.14 557.02 2.69 506.6 33.63Z" id="aWZCi4FPF"></path><path d="M506.6 33.63C472.79 54.38 448.5 86.78 435.76 106.66C469.45 131.39 494.39 166.95 505.27 208.09C511.61 202.88 517.28 197.27 522.33 191.35C512.2 164.07 495.72 139.8 474.63 120.27C465.27 111.6 464.08 97.27 471.83 87.14C495.32 56.43 520.44 37.76 531.74 32.11C524.39 27.96 515.82 27.97 506.6 33.63Z" id="a2OQGoIwMq"></path><path d="M435.76 106.66C455.16 120.9 471.65 138.74 484.23 159.16C518.14 42.88 550.08 57.11 550.08 57.11C542.11 35.47 526.4 21.47 506.6 33.63C478.09 51.12 453.67 78.72 435.77 106.65C435.77 106.66 435.77 106.66 435.76 106.66Z" id="c1fpLIAg6b"></path><path d="M495.82 40.86C472.15 58.06 448.5 85.44 435.77 106.66C454.53 120.44 471.28 138.13 484.23 159.16C486.5 151.37 488.77 144.19 491.01 137.53C485.92 131.44 480.46 125.67 474.63 120.27C465.27 111.6 464.08 97.27 471.83 87.14C495.32 56.43 520.44 37.76 531.74 32.11C518.77 24.79 507.88 32.1 495.82 40.86Z" id="nHHWZlO5m"></path><path d="M219.8 106.56C207 86.62 182.73 54.34 149.02 33.64C98.61 2.69 67.54 139.89 149.94 208.09C160.91 166.88 185.98 131.28 219.8 106.56Z" id="f2hK5Wv8DQ"></path><path d="M149.94 208.09C151.42 202.52 153.17 197.06 155.15 191.71C106.09 134.26 115.95 48.46 145.95 31.97C97.39 8.29 69.22 141.29 149.94 208.09Z" id="h1JVuMh52g"></path><path d="M219.8 106.56C207 86.62 182.73 54.34 149.02 33.64C130.14 22.05 113.99 34.05 105.47 57.17C105.47 57.17 137.36 42.96 171.25 158.83C183.89 138.49 200.4 120.73 219.8 106.56Z" id="b5WgwlyWH"></path><path d="M145.95 31.97C136.86 27.54 128.48 28.6 121.4 33.69C121.38 33.71 121.36 33.72 121.34 33.73C113.81 39.17 108.71 48.41 105.48 57.16C105.61 57.11 113.31 53.82 125.1 64.07C129.39 48.7 136.72 37.05 145.95 31.97Z" id="cqTpoftUE"></path><path d="M510.09 227.19C496.86 138.23 420.17 69.99 327.52 69.99C234.88 69.99 158.19 138.23 144.96 227.19C142.96 240.62 135.26 252.44 124.13 260.21C69.51 298.3 43.45 353.28 62.15 415.24C62.91 417.72 66.24 418.16 67.58 415.93C68.39 414.58 74.92 403.74 75.73 402.39C75.73 403.48 84.63 439.62 113.31 476.87C114.52 478.44 116.97 478.13 117.72 476.3C118.22 475.09 122.2 465.45 122.7 464.24C123.47 462.37 125.8 461.78 127.39 463.03C236.96 549.03 418.2 548.94 527.66 463.03C529.25 461.78 531.58 462.37 532.35 464.24C532.85 465.45 536.83 475.09 537.33 476.3C538.08 478.13 540.53 478.44 541.74 476.87C571.4 438.34 579.32 402.39 579.32 402.39C580.13 403.74 586.66 414.58 587.47 415.93C588.81 418.16 592.14 417.72 592.89 415.24C611.64 353.15 585.43 298.22 530.92 260.21C519.78 252.44 512.09 240.62 510.09 227.19Z" id="aaUodCpYH"></path><path d="M89.42 415.94C88.08 418.16 84.75 417.72 84 415.24C65.26 353.17 91.45 298.23 145.97 260.21C157.11 252.44 164.8 240.62 166.81 227.19C179.51 141.75 250.76 75.43 338.45 70.32C334.83 70.11 331.19 69.99 327.52 69.99C234.88 69.99 158.19 138.23 144.96 227.19C142.96 240.62 135.26 252.45 124.13 260.21C69.55 298.27 43.43 353.23 62.15 415.24C62.91 417.72 66.24 418.16 67.58 415.94C68.39 414.58 74.92 403.74 75.73 402.39C75.73 402.39 83.65 438.34 113.32 476.87C114.52 478.44 116.97 478.13 117.72 476.3C118.22 475.1 122.2 465.45 122.7 464.24C123.11 463.25 123.96 462.63 124.92 462.44C103.62 429.82 97.58 402.39 97.58 402.39C97.58 402.39 90.24 414.58 89.42 415.94Z" id="e11Ik9fijR"></path><path d="M124.13 260.21C69.51 298.3 43.45 353.28 62.15 415.24C62.91 417.72 66.24 418.16 67.58 415.93C68.39 414.58 74.92 403.74 75.73 402.39C75.73 403.48 84.63 439.62 113.31 476.87C114.52 478.44 116.97 478.13 117.72 476.3C118.22 475.09 122.2 465.45 122.7 464.24C123.47 462.37 125.8 461.78 127.39 463.03C145.54 477.27 167 489.93 190.97 500.18C64.76 371.15 263.79 347.34 299.08 291.23C328.28 244.81 290.57 119.09 276.69 77.08C207.99 96.72 155.67 155.16 144.96 227.19C142.96 240.62 135.26 252.44 124.13 260.21Z" id="agZlEU4bp"></path><path d="M75.73 402.39C75.73 402.39 83.65 438.34 113.32 476.87C114.48 478.4 116.96 478.15 117.72 476.3C121.27 467.69 120.43 469.74 122.7 464.24C123.07 463.35 123.88 462.65 124.91 462.44C103.62 429.82 97.58 402.39 97.58 402.39C96.76 403.74 90.24 414.58 89.42 415.94C88.08 418.16 84.75 417.72 84 415.24C65.26 353.17 91.45 298.23 145.97 260.21C157.11 252.45 164.8 240.62 166.8 227.19C176.47 162.19 220.03 108.27 278.92 83.93C278.13 81.46 277.37 79.17 276.69 77.08C207.27 96.93 155.58 155.88 144.96 227.17C143.07 239.87 135.85 252.04 124.13 260.21C70.1 297.89 43.28 352.72 62.15 415.24C62.86 417.57 65.83 418.1 67.3 416.32C67.4 416.2 67.49 416.07 67.58 415.93C69.21 413.22 74.1 405.1 75.73 402.39Z" id="b3AP1zd64P"></path><path d="M530.92 260.21C585.54 298.3 611.6 353.28 592.89 415.24C592.14 417.72 588.81 418.16 587.47 415.93C586.66 414.58 580.13 403.74 579.32 402.39C579.32 402.39 571.4 438.34 541.74 476.87C540.53 478.44 538.08 478.13 537.33 476.3C536.83 475.09 532.85 465.45 532.35 464.24C531.58 462.37 529.25 461.78 527.66 463.03C509.51 477.27 488.05 489.93 464.08 500.18C590.28 371.15 391.26 347.33 355.97 291.23C326.77 244.81 364.48 119.08 378.36 77.08C447.06 96.72 499.38 155.16 510.09 227.19C512.09 240.62 519.78 252.44 530.92 260.21Z" id="d3zBHouJoE"></path><path d="M377.95 291.23C350.21 247.12 382.86 131.44 398.1 83.98C391.69 81.33 385.11 79.01 378.36 77.08C364.48 119.09 326.77 244.81 355.97 291.23C391.26 347.34 590.28 371.15 464.08 500.18C478.52 494.01 492.04 486.95 504.49 479.21C590.2 368.35 411.24 344.15 377.95 291.23Z" id="c2PPsv2iwG"></path><path d="M300.46 453.03C300.46 455.81 300.46 478.06 300.46 480.84C300.46 486.82 305.31 491.66 311.29 491.66C314.54 491.66 340.51 491.66 343.76 491.66C349.74 491.66 354.59 486.82 354.59 480.84C354.59 478.06 354.59 455.81 354.59 453.03C339.27 450.71 327.52 437.53 327.52 421.58C327.52 437.53 315.78 450.71 300.46 453.03Z" id="e1uruad5ae"></path><path d="M322.31 464.93C322.31 458.56 326.04 452.89 331.73 450.05C334.17 448.84 336.41 447.31 338.44 445.54C331.76 439.71 327.52 431.15 327.52 421.58C327.52 437.53 315.78 450.71 300.46 453.03C300.46 455.81 300.46 478.06 300.46 480.84C300.46 486.82 305.31 491.66 311.29 491.66C313.47 491.66 330.95 491.66 333.13 491.66C327.15 491.66 322.31 486.82 322.31 480.84C322.31 477.66 322.31 466.52 322.31 464.93Z" id="c2iTGTKD3V"></path><path d="M427.93 304.6C415.56 304.6 405.54 294.57 405.54 282.2C405.54 269.84 415.56 259.81 427.93 259.81C440.3 259.81 450.33 269.84 450.33 282.2C450.33 294.57 440.3 304.6 427.93 304.6Z" id="ibyKADT7V"></path><path d="M227.61 304.6C215.24 304.6 205.22 294.57 205.22 282.2C205.22 269.84 215.24 259.81 227.61 259.81C239.98 259.81 250.01 269.84 250.01 282.2C250.01 294.57 239.98 304.6 227.61 304.6Z" id="c38yXZ5v4"></path><path d="M327.67 338.12C302.68 338.12 282.42 349.3 282.42 363.09C282.42 376.88 302.68 388.06 327.67 388.06C352.65 388.06 372.91 376.88 372.91 363.09C372.91 349.3 352.65 338.12 327.67 338.12Z" id="b1w0ejfhF0"></path><path d="M438.85 262.66C435.62 260.85 431.9 259.81 427.93 259.81C415.56 259.81 405.54 269.84 405.54 282.2C405.54 294.57 415.56 304.6 427.93 304.6C431.9 304.6 435.62 303.56 438.85 301.74C432.01 297.91 427.38 290.61 427.38 282.2C427.38 273.81 432.01 266.5 438.85 262.66Z" id="a36B1uBxO"></path><path d="M238.54 262.66C235.3 260.85 231.58 259.81 227.61 259.81C215.24 259.81 205.22 269.84 205.22 282.2C205.22 294.57 215.24 304.6 227.61 304.6C231.58 304.6 235.3 303.56 238.54 301.74C231.69 297.91 227.06 290.61 227.06 282.2C227.06 273.81 231.69 266.5 238.54 262.66Z" id="cyu3D29z8"></path><path d="M338.58 338.85C335.09 338.38 331.43 338.12 327.66 338.12C302.67 338.12 282.42 349.3 282.42 363.09C282.42 376.88 302.67 388.06 327.66 388.06C331.43 388.06 335.09 387.8 338.58 387.32C318.88 384.62 304.26 374.8 304.26 363.09C304.26 351.38 318.88 341.55 338.58 338.85Z" id="d49gNzgGV"></path><path d="M327.58 330.11C297.61 330.11 274.14 344.68 274.14 363.27C274.14 380.1 293.37 393.63 319.25 396.05C319.25 424.52 319.29 422.31 319.14 423.95C318 436.04 307.66 445.42 295.58 445.42C282.53 445.42 271.92 434.81 271.92 421.76C271.92 420.79 271.92 413.01 271.92 412.04C271.92 407.52 268.25 403.85 263.72 403.85C259.2 403.85 255.53 407.52 255.53 412.04C255.53 413.01 255.53 420.79 255.53 421.76C255.53 442.7 271.69 459.93 292.19 461.65C292.19 463.59 292.19 479.08 292.19 481.02C292.19 491.51 300.72 500.04 311.2 500.04C314.45 500.04 340.42 500.04 343.67 500.04C354.16 500.04 362.69 491.51 362.69 481.02C362.69 479.08 362.69 463.59 362.69 461.66C383.19 459.93 399.34 442.7 399.34 421.76C399.34 420.79 399.34 413.02 399.34 412.05C399.34 407.52 395.68 403.85 391.15 403.85C386.63 403.85 382.96 407.52 382.96 412.05C382.96 413.02 382.96 420.79 382.96 421.76C382.96 434.81 372.34 445.42 359.29 445.42C346.42 445.42 335.63 434.78 335.63 421.76C335.63 419.19 335.63 398.64 335.63 396.07C361.64 393.73 381.01 380.16 381.01 363.27C381.01 344.68 357.54 330.11 327.58 330.11ZM346.31 481.02C346.31 482.47 345.13 483.65 343.68 483.65C340.43 483.65 314.45 483.65 311.2 483.65C309.75 483.65 308.57 482.47 308.57 481.02C308.57 478.88 308.57 461.77 308.57 459.64C316.13 457.03 322.68 452.23 327.44 445.99C332.19 452.23 338.74 457.03 346.31 459.64C346.31 463.91 346.31 478.88 346.31 481.02ZM290.52 363.27C290.52 356.26 304.62 346.49 327.58 346.49C350.53 346.49 364.63 356.26 364.63 363.27C364.63 370.28 350.53 380.05 327.58 380.05C304.62 380.05 290.52 370.28 290.52 363.27Z" id="b3GS9IQ8OQ"></path><path d="M397.26 282.39C397.26 299.25 410.98 312.97 427.85 312.97C444.71 312.97 458.43 299.25 458.43 282.39C458.43 265.52 444.71 251.8 427.85 251.8C410.98 251.8 397.26 265.52 397.26 282.39ZM413.64 282.39C413.64 274.56 420.02 268.18 427.85 268.18C435.68 268.18 442.05 274.56 442.05 282.39C442.05 290.22 435.68 296.59 427.85 296.59C420.02 296.59 413.64 290.22 413.64 282.39Z" id="c1BUzlNab8"></path><path d="M258.11 282.39C258.11 265.52 244.39 251.8 227.53 251.8C210.66 251.8 196.94 265.52 196.94 282.39C196.94 299.25 210.66 312.97 227.53 312.97C244.39 312.97 258.11 299.25 258.11 282.39ZM241.73 282.39C241.73 290.22 235.36 296.59 227.53 296.59C219.7 296.59 213.33 290.22 213.33 282.39C213.33 274.56 219.7 268.18 227.53 268.18C235.36 268.18 241.73 274.56 241.73 282.39Z" id="hg3m3zrHQ"></path><path d="M73.2 422.1C78.86 437.25 89.26 459.36 106.74 482.06C109.08 485.1 112.89 486.66 116.69 486.16C123.8 485.22 125.29 479.4 127.62 473.76C238.54 556.47 415.95 556.75 527.26 473.76C527.5 474.35 529.43 479.03 529.67 479.61C533.11 487.93 544.18 488 548.15 482.05C565.89 459 576.14 436.81 581.66 422.07C587.49 428.52 598.14 426.1 600.65 417.79C604.61 404.66 606.75 391.48 607 378.63C607.08 374.11 603.49 370.37 598.97 370.28C594.47 370.19 590.71 373.79 590.62 378.32C590.47 385.84 589.59 393.51 587.99 401.23C586.28 398.39 584.48 394.38 579.23 394.38C575.39 394.38 572.07 397.04 571.23 400.79C571.17 401.11 564.34 430.76 541 464.11C539.99 461.67 537.96 454.58 529.74 454.36C522.42 454.16 521.93 459.49 495.6 475.18C509.99 453.87 515.7 434.29 512.97 415.9C507.05 376.05 462.31 351.51 422.85 329.86C396.85 315.61 372.31 302.14 362.82 287.06C341.66 253.42 359.24 163.37 383.56 87.48C446.71 108.64 492.28 163.93 501.9 228.58C504.2 244.06 513.15 258.05 526.15 267.11C553.03 285.86 575.91 311.36 585.6 342.67C586.94 346.99 591.53 349.41 595.85 348.07C600.17 346.74 602.58 342.15 601.25 337.83C591.37 305.92 569.52 279.24 542.55 258.8C535.03 253.09 529.39 250.24 523.88 241.54C517.64 231.69 519.14 227.95 515.25 211.17C595.47 138.94 566.47 0.19 509.33 23.64C496.16 29.05 463.53 53.57 435.66 95.2C409.16 77.19 378.88 66.26 347.39 63.01C342.9 62.55 338.87 65.82 338.4 70.32C337.94 74.83 341.21 78.85 345.71 79.31C353.22 80.09 360.59 81.32 367.8 83C350.4 137.39 320.03 249.8 348.95 295.78C376.36 339.37 488.53 362.87 496.76 418.31C499.87 439.25 487.25 464.53 459.27 493.46C377.77 527.51 277.11 527.51 195.61 493.46C119.76 415.02 169.33 382.94 239.91 344.23C267.82 328.92 294.18 314.46 305.93 295.78C334.85 249.8 304.48 137.38 287.08 83C294.28 81.32 301.65 80.08 309.16 79.31C313.66 78.85 316.94 74.82 316.47 70.32C316.01 65.82 312.01 62.54 307.48 63.01C276.54 66.2 246.32 76.87 219.56 94.97C192.16 54.13 159.09 27.86 143.85 22.83C88.09 4.01 61.15 139.5 139.71 210.8C138.5 215.98 137.5 221.25 136.77 226.17C133.68 247 118.34 253.55 105.53 264.18C79.93 282.79 57.84 315.64 50.74 349.33C43.12 385.37 53.64 417.31 55.28 420.14C59.11 426.78 68.15 427.64 73.2 422.1ZM510.2 193.32C506.07 181.04 500.73 169.28 494.31 158.2C516.61 81.94 536.68 67.96 544.2 65.49C553.86 99.48 547.63 154.87 510.2 193.32ZM537.84 50.14C523.28 55.53 503.05 76.38 482.62 140.38C473.33 127.78 462.11 115.77 448.83 104.99C474.37 66.75 508.43 38.88 520.02 37.6C527.93 36.87 533.87 43.3 537.84 50.14ZM206.37 104.73C193.72 114.96 182.27 126.88 172.6 139.9C152.23 76.27 132.06 55.52 117.53 50.14C121.49 43.35 127.28 37.03 135.08 37.6C145.74 38.51 179.25 64.23 206.37 104.73ZM160.9 157.63C154.39 168.76 148.99 180.58 144.8 192.94C109.03 155.88 100.99 101.33 111.18 65.48C118.68 67.95 138.66 81.85 160.9 157.63ZM154.06 222.12C155.36 215.2 156.78 210 156.78 210C156.78 210 157.53 207.12 158.6 203.59C175.13 149.02 217.45 105.53 271.31 87.48C295.63 163.37 313.22 253.42 292.06 287.06C282.57 302.14 258.03 315.61 232.03 329.86C179.59 358.63 106.81 397.5 159.29 475.18C147.71 468.29 142.06 464.04 132.36 456.77C131.27 456.22 128.14 453.26 122.55 454.73C121.46 455.28 117.26 455.92 115.04 461.3C114.92 461.58 113.99 463.83 113.88 464.11C90.99 431.41 84 402.31 83.66 400.86C82.11 393.6 72.45 392.02 68.63 398.34C68.46 398.63 67.06 400.95 66.89 401.24C57.25 355.21 75.61 310.16 111.68 280.19C136.01 259.96 147.02 260.07 154.06 222.12Z" id="b1CvcKvmkQ"></path><path d="M216.62 482.8C211.65 481.22 206.08 481.47 201.35 483.49C196.69 485.47 193.3 489 192.08 493.16C186.1 514.49 183.18 536.31 183.39 558.18C183.18 580.06 186.09 601.89 192.08 623.23C193.3 627.39 196.68 630.93 201.34 632.91C206.08 634.91 211.65 635.15 216.61 633.55C242.36 625.28 287.93 609.47 303.77 596.55C304.92 595.62 305.56 594.35 305.56 593.03C305.56 586.06 305.56 530.3 305.56 523.33C305.56 522 304.92 520.74 303.77 519.8C287.89 506.85 242.35 491.06 216.62 482.8Z" id="a1tB0MK9pc"></path><path d="M231.95 583.33C231.79 580.58 234.38 578.23 237.76 578.1C250.58 577.05 287.23 571.08 287.23 558.18C287.23 545.28 250.58 539.31 237.74 538.26C234.39 538 231.93 535.56 232.25 532.83C232.26 532.81 232.26 532.79 232.26 532.78C232.63 530.04 235.63 528.05 238.99 528.3C245.17 528.82 299.45 534.02 299.45 558.18C299.45 582.34 245.17 587.52 238.99 588.06C238.95 588.06 238.74 588.06 238.37 588.06C234.2 586.74 232.07 585.16 231.95 583.33Z" id="b3eTKzuWZO"></path><path d="M458.63 483.49C453.9 481.48 448.33 481.25 443.37 482.85C417.64 491.11 372.1 506.89 356.21 519.85C355.08 520.77 354.44 522.02 354.42 523.33C354.42 530.3 354.42 586.06 354.42 593.03C354.42 594.36 355.06 595.62 356.21 596.56C372.09 609.5 417.61 625.29 443.37 633.56C445.53 634.24 447.82 634.57 450.14 634.56C458.57 634.58 465.92 629.87 467.89 623.19C473.87 601.87 476.79 580.05 476.59 558.18C476.8 536.3 473.89 514.47 467.9 493.13C466.66 488.98 463.28 485.46 458.63 483.49Z" id="dJhZUplb4"></path><path d="M420.99 588.06C414.81 587.55 360.53 582.35 360.53 558.18C360.53 534.01 414.81 528.84 420.99 528.3C424.36 528.03 427.37 530.04 427.71 532.79C428.04 535.54 425.58 537.99 422.21 538.26C409.37 539.34 372.72 545.31 372.72 558.18C372.72 571.05 409.37 577.05 422.21 578.1C425.58 578.23 428.18 580.58 428.01 583.33C427.84 586.08 424.97 588.19 421.6 588.06C421.6 588.06 421.6 588.06 421.61 588.06C421.24 588.06 421.03 588.06 420.99 588.06Z" id="e95Yoh5aP"></path><path d="M354.42 518.35C349.54 518.35 310.44 518.35 305.56 518.35C303.54 518.34 301.65 519.15 300.51 520.51C282.8 543.55 282.8 572.81 300.51 595.85C301.65 597.21 303.54 598.02 305.56 598.01C310.44 598.01 349.54 598.01 354.42 598.01C356.43 598.01 358.32 597.2 359.45 595.85C377.17 572.81 377.17 543.55 359.45 520.51C359.46 520.51 359.46 520.51 359.47 520.51C357.45 519.07 355.77 518.34 354.42 518.35Z" id="aX6GATYCV"></path><path d="M201.36 632.92C196.7 630.94 193.31 627.41 192.08 623.24C186.1 601.9 183.18 580.07 183.39 558.18C183.18 536.3 186.1 514.47 192.08 493.13C194.46 485.14 204.33 480.23 214.13 482.17C214.98 482.34 215.8 482.55 216.61 482.81C242.33 491.07 287.88 506.85 303.77 519.8C306.12 521.78 306.05 524.93 303.62 526.84C301.26 528.7 297.5 528.7 295.14 526.84C280.27 514.73 232.13 498.5 212.13 492.08C210.47 491.53 208.59 491.61 207.01 492.29C205.47 492.92 204.36 494.08 203.97 495.45C198.21 516.03 195.4 537.08 195.61 558.18C195.4 579.29 198.21 600.34 203.97 620.92C204.36 622.28 205.47 623.44 207.01 624.08C208.59 624.75 210.47 624.83 212.13 624.28C232.14 617.86 280.27 601.63 295.14 589.51C297.56 587.6 301.43 587.65 303.77 589.63C306.06 591.56 306.06 594.62 303.77 596.55C287.89 609.5 242.34 625.29 216.61 633.55C214.45 634.24 212.15 634.6 209.83 634.6C206.88 634.6 203.98 634.03 201.36 632.92Z" id="dhLHlw1xW"></path><path d="M231.95 583.33C231.79 580.58 234.38 578.23 237.76 578.1C250.58 577.05 287.23 571.07 287.23 558.18C287.23 545.29 250.58 539.31 237.74 538.26C234.37 537.99 231.91 535.54 232.25 532.79C232.58 530.04 235.59 528.03 238.97 528.3C245.16 528.82 299.42 534.02 299.42 558.18C299.42 582.34 245.16 587.52 238.97 588.06C238.93 588.06 238.73 588.06 238.37 588.06C234.2 586.74 232.07 585.16 231.95 583.33Z" id="dmxTKCNBy"></path><path d="M305.56 598.01C303.55 598.01 301.66 597.2 300.52 595.85C282.81 572.82 282.81 543.55 300.52 520.52C301.66 519.16 303.54 518.35 305.56 518.35C310.44 518.35 349.54 518.35 354.42 518.35C356.43 518.35 358.32 519.16 359.45 520.51C377.17 543.54 377.17 572.81 359.45 595.84C358.32 597.2 356.44 598.01 354.42 598.01C344.65 598.01 310.44 598.01 305.56 598.01ZM350.96 588.06C357.11 578.89 360.4 568.63 360.53 558.18C360.4 547.73 357.11 537.47 350.96 528.3C346.77 528.3 313.21 528.3 309.01 528.3C302.87 537.47 299.58 547.73 299.45 558.18C299.58 568.63 302.87 578.89 309.01 588.06C317.4 588.06 346.77 588.06 350.96 588.06Z" id="h6sl1TVH9"></path><path d="M443.37 633.55C417.65 625.29 372.1 609.51 356.21 596.56C353.86 594.58 353.93 591.43 356.36 589.52C358.72 587.66 362.48 587.66 364.84 589.52C379.71 601.63 427.84 617.87 447.85 624.28C449.51 624.83 451.38 624.75 452.97 624.08C454.51 623.44 455.62 622.28 456.01 620.91C461.77 600.33 464.58 579.28 464.37 558.18C464.58 537.07 461.77 516.02 456.01 495.44C455.62 494.08 454.5 492.92 452.97 492.29C451.38 491.61 449.51 491.53 447.85 492.08C427.84 498.5 379.71 514.73 364.84 526.85C362.42 528.76 358.55 528.71 356.21 526.73C353.92 524.8 353.92 521.74 356.21 519.81C372.09 506.86 417.64 491.07 443.37 482.82C448.32 481.22 453.89 481.45 458.61 483.45C463.28 485.43 466.67 488.96 467.9 493.13C473.88 514.47 476.79 536.3 476.58 558.18C476.79 580.06 473.88 601.89 467.9 623.23C465.92 629.91 458.58 634.61 450.15 634.6C447.83 634.6 445.53 634.24 443.37 633.55Z" id="b1sAMyLK0J"></path><path d="M420.98 588.06C414.78 587.54 360.52 582.34 360.52 558.18C360.52 534.02 414.78 528.84 420.98 528.3C424.35 528.04 427.35 530.03 427.72 532.78C428.06 535.51 425.62 537.95 422.27 538.23C409.43 539.31 372.78 545.28 372.78 558.15C372.78 571.02 409.43 577.02 422.27 578.07C425.64 578.21 428.24 580.55 428.07 583.3C427.91 586.05 425.03 588.16 421.66 588.03C421.66 588.03 421.64 588.04 421.61 588.06C421.23 588.06 421.02 588.06 420.98 588.06Z" id="bfCrE9ooX"></path></defs><g><g><g transform="matrix(1 0 0 1 0 0)" vector-effect="non-scaling-stroke"><use xlink:href="#aWZCi4FPF" opacity="1" fill="#605a54" fill-opacity="1"></use><g><use xlink:href="#aWZCi4FPF" opacity="1" fill-opacity="0" stroke="#000000" stroke-width="1" stroke-opacity="0"></use></g></g><g transform="matrix(1 0 0 1 0 0)" vector-effect="non-scaling-stroke"><use xlink:href="#a2OQGoIwMq" opacity="1" fill="#4a4037" fill-opacity="1"></use><g><use xlink:href="#a2OQGoIwMq" opacity="1" fill-opacity="0" stroke="#000000" stroke-width="1" stroke-opacity="0"></use></g></g><g transform="matrix(1 0 0 1 0 0)" vector-effect="non-scaling-stroke"><use xlink:href="#c1fpLIAg6b" opacity="1" fill="#cccccc" fill-opacity="1"></use><g><use xlink:href="#c1fpLIAg6b" opacity="1" fill-opacity="0" stroke="#000000" stroke-width="1" stroke-opacity="0"></use></g></g><g transform="matrix(1 0 0 1 0 0)" vector-effect="non-scaling-stroke"><use xlink:href="#nHHWZlO5m" opacity="1" fill="#a8a49f" fill-opacity="1"></use><g><use xlink:href="#nHHWZlO5m" opacity="1" fill-opacity="0" stroke="#000000" stroke-width="1" stroke-opacity="0"></use></g></g><g transform="matrix(1 0 0 1 0 0)" vector-effect="non-scaling-stroke"><use xlink:href="#f2hK5Wv8DQ" opacity="1" fill="#605a54" fill-opacity="1"></use><g><use xlink:href="#f2hK5Wv8DQ" opacity="1" fill-opacity="0" stroke="#000000" stroke-width="1" stroke-opacity="0"></use></g></g><g transform="matrix(1 0 0 1 0 0)" vector-effect="non-scaling-stroke"><use xlink:href="#h1JVuMh52g" opacity="1" fill="#4a4037" fill-opacity="1"></use><g><use xlink:href="#h1JVuMh52g" opacity="1" fill-opacity="0" stroke="#000000" stroke-width="1" stroke-opacity="0"></use></g></g><g transform="matrix(1 0 0 1 0 0)" vector-effect="non-scaling-stroke"><use xlink:href="#b5WgwlyWH" opacity="1" fill="#cccccc" fill-opacity="1"></use><g><use xlink:href="#b5WgwlyWH" opacity="1" fill-opacity="0" stroke="#000000" stroke-width="1" stroke-opacity="0"></use></g></g><g transform="matrix(1 0 0 1 0 0)" vector-effect="non-scaling-stroke"><use xlink:href="#cqTpoftUE" opacity="1" fill="#a8a49f" fill-opacity="1"></use><g><use xlink:href="#cqTpoftUE" opacity="1" fill-opacity="0" stroke="#000000" stroke-width="1" stroke-opacity="0"></use></g></g><g transform="matrix(1 0 0 1 0 0)" vector-effect="non-scaling-stroke"><use xlink:href="#aaUodCpYH" opacity="1" fill="#928e8a" fill-opacity="1"></use><g><use xlink:href="#aaUodCpYH" opacity="1" fill-opacity="0" stroke="#000000" stroke-width="1" stroke-opacity="0"></use></g></g><g transform="matrix(1 0 0 1 0 0)" vector-effect="non-scaling-stroke"><use xlink:href="#e11Ik9fijR" opacity="1" fill="#e2c8ac" fill-opacity="1"></use><g><use xlink:href="#e11Ik9fijR" opacity="1" fill-opacity="0" stroke="#000000" stroke-width="1" stroke-opacity="0"></use></g></g><g transform="matrix(1 0 0 1 0 0)" vector-effect="non-scaling-stroke"><use xlink:href="#agZlEU4bp" opacity="1" fill="#cccccc" fill-opacity="1"></use><g><use xlink:href="#agZlEU4bp" opacity="1" fill-opacity="0" stroke="#000000" stroke-width="1" stroke-opacity="0"></use></g></g><g transform="matrix(1 0 0 1 0 0)" vector-effect="non-scaling-stroke"><use xlink:href="#b3AP1zd64P" opacity="1" fill="#a8a49f" fill-opacity="1"></use><g><use xlink:href="#b3AP1zd64P" opacity="1" fill-opacity="0" stroke="#000000" stroke-width="1" stroke-opacity="0"></use></g></g><g transform="matrix(1 0 0 1 0 0)" vector-effect="non-scaling-stroke"><use xlink:href="#d3zBHouJoE" opacity="1" fill="#cccccc" fill-opacity="1"></use><g><use xlink:href="#d3zBHouJoE" opacity="1" fill-opacity="0" stroke="#000000" stroke-width="1" stroke-opacity="0"></use></g></g><g transform="matrix(1 0 0 1 0 0)" vector-effect="non-scaling-stroke"><use xlink:href="#c2PPsv2iwG" opacity="1" fill="#a8a49f" fill-opacity="1"></use><g><use xlink:href="#c2PPsv2iwG" opacity="1" fill-opacity="0" stroke="#000000" stroke-width="1" stroke-opacity="0"></use></g></g><g transform="matrix(1 0 0 1 0 0)" vector-effect="non-scaling-stroke"><use xlink:href="#e1uruad5ae" opacity="1" fill="#ffffff" fill-opacity="1"></use><g><use xlink:href="#e1uruad5ae" opacity="1" fill-opacity="0" stroke="#000000" stroke-width="1" stroke-opacity="0"></use></g></g><g transform="matrix(1 0 0 1 0 0)" vector-effect="non-scaling-stroke"><use xlink:href="#c2iTGTKD3V" opacity="1" fill="#e4e3e1" fill-opacity="1"></use><g><use xlink:href="#c2iTGTKD3V" opacity="1" fill-opacity="0" stroke="#000000" stroke-width="1" stroke-opacity="0"></use></g></g><g transform="matrix(1 0 0 1 0 0)" vector-effect="non-scaling-stroke"><use xlink:href="#ibyKADT7V" opacity="1" fill="#525468" fill-opacity="1"></use><g><use xlink:href="#ibyKADT7V" opacity="1" fill-opacity="0" stroke="#000000" stroke-width="1" stroke-opacity="0"></use></g></g><g transform="matrix(1 0 0 1 0 0)" vector-effect="non-scaling-stroke"><use xlink:href="#c38yXZ5v4" opacity="1" fill="#525468" fill-opacity="1"></use><g><use xlink:href="#c38yXZ5v4" opacity="1" fill-opacity="0" stroke="#000000" stroke-width="1" stroke-opacity="0"></use></g></g><g transform="matrix(1 0 0 1 0 0)" vector-effect="non-scaling-stroke"><use xlink:href="#b1w0ejfhF0" opacity="1" fill="#bc7a64" fill-opacity="1"></use><g><use xlink:href="#b1w0ejfhF0" opacity="1" fill-opacity="0" stroke="#000000" stroke-width="1" stroke-opacity="0"></use></g></g><g transform="matrix(1 0 0 1 0 0)" vector-effect="non-scaling-stroke"><use xlink:href="#a36B1uBxO" opacity="1" fill="#3e4151" fill-opacity="1"></use><g><use xlink:href="#a36B1uBxO" opacity="1" fill-opacity="0" stroke="#000000" stroke-width="1" stroke-opacity="0"></use></g></g><g transform="matrix(1 0 0 1 0 0)" vector-effect="non-scaling-stroke"><use xlink:href="#cyu3D29z8" opacity="1" fill="#3e4151" fill-opacity="1"></use><g><use xlink:href="#cyu3D29z8" opacity="1" fill-opacity="0" stroke="#000000" stroke-width="1" stroke-opacity="0"></use></g></g><g transform="matrix(1 0 0 1 0 0)" vector-effect="non-scaling-stroke"><use xlink:href="#d49gNzgGV" opacity="1" fill="#a0634a" fill-opacity="1"></use><g><use xlink:href="#d49gNzgGV" opacity="1" fill-opacity="0" stroke="#000000" stroke-width="1" stroke-opacity="0"></use></g></g><g transform="matrix(1 0 0 1 0 0)" vector-effect="non-scaling-stroke"><use xlink:href="#b3GS9IQ8OQ" opacity="1" fill="#000000" fill-opacity="1"></use><g><use xlink:href="#b3GS9IQ8OQ" opacity="1" fill-opacity="0" stroke="#000000" stroke-width="1" stroke-opacity="0"></use></g></g><g transform="matrix(1 0 0 1 0 0)" vector-effect="non-scaling-stroke"><use xlink:href="#c1BUzlNab8" opacity="1" fill="#000000" fill-opacity="1"></use><g><use xlink:href="#c1BUzlNab8" opacity="1" fill-opacity="0" stroke="#000000" stroke-width="1" stroke-opacity="0"></use></g></g><g transform="matrix(1 0 0 1 0 0)" vector-effect="non-scaling-stroke"><use xlink:href="#hg3m3zrHQ" opacity="1" fill="#000000" fill-opacity="1"></use><g><use xlink:href="#hg3m3zrHQ" opacity="1" fill-opacity="0" stroke="#000000" stroke-width="1" stroke-opacity="0"></use></g></g><g transform="matrix(1 0 0 1 0 0)" vector-effect="non-scaling-stroke"><use xlink:href="#b1CvcKvmkQ" opacity="1" fill="#000000" fill-opacity="1"></use><g><use xlink:href="#b1CvcKvmkQ" opacity="1" fill-opacity="0" stroke="#000000" stroke-width="1" stroke-opacity="0"></use></g></g><g transform="matrix(1 0 0 1 0 0)" vector-effect="non-scaling-stroke"><use xlink:href="#a1tB0MK9pc" opacity="1" fill="#f44336" fill-opacity="1"></use><g><use xlink:href="#a1tB0MK9pc" opacity="1" fill-opacity="0" stroke="#000000" stroke-width="1" stroke-opacity="0"></use></g></g><g transform="matrix(1 0 0 1 0 0)" vector-effect="non-scaling-stroke"><use xlink:href="#b3eTKzuWZO" opacity="1" fill="#e57373" fill-opacity="1"></use><g><use xlink:href="#b3eTKzuWZO" opacity="1" fill-opacity="0" stroke="#000000" stroke-width="1" stroke-opacity="0"></use></g></g><g transform="matrix(1 0 0 1 0 0)" vector-effect="non-scaling-stroke"><use xlink:href="#dJhZUplb4" opacity="1" fill="#f44336" fill-opacity="1"></use><g><use xlink:href="#dJhZUplb4" opacity="1" fill-opacity="0" stroke="#000000" stroke-width="1" stroke-opacity="0"></use></g></g><g transform="matrix(1 0 0 1 0 0)" vector-effect="non-scaling-stroke"><use xlink:href="#e95Yoh5aP" opacity="1" fill="#e57373" fill-opacity="1"></use><g><use xlink:href="#e95Yoh5aP" opacity="1" fill-opacity="0" stroke="#000000" stroke-width="1" stroke-opacity="0"></use></g></g><g transform="matrix(1 0 0 1 0 0)" vector-effect="non-scaling-stroke"><use xlink:href="#aX6GATYCV" opacity="1" fill="#d32f2f" fill-opacity="1"></use><g><use xlink:href="#aX6GATYCV" opacity="1" fill-opacity="0" stroke="#000000" stroke-width="1" stroke-opacity="0"></use></g></g><g transform="matrix(1 0 0 1 0 0)" vector-effect="non-scaling-stroke"><use xlink:href="#dhLHlw1xW" opacity="1" fill="#000000" fill-opacity="1"></use><g><use xlink:href="#dhLHlw1xW" opacity="1" fill-opacity="0" stroke="#000000" stroke-width="1" stroke-opacity="0"></use></g></g><g transform="matrix(1 0 0 1 0 0)" vector-effect="non-scaling-stroke"><use xlink:href="#dmxTKCNBy" opacity="1" fill="#000000" fill-opacity="1"></use><g><use xlink:href="#dmxTKCNBy" opacity="1" fill-opacity="0" stroke="#000000" stroke-width="1" stroke-opacity="0"></use></g></g><g transform="matrix(1 0 0 1 0 0)" vector-effect="non-scaling-stroke"><use xlink:href="#h6sl1TVH9" opacity="1" fill="#000000" fill-opacity="1"></use><g><use xlink:href="#h6sl1TVH9" opacity="1" fill-opacity="0" stroke="#000000" stroke-width="1" stroke-opacity="0"></use></g></g><g transform="matrix(1 0 0 1 0 0)" vector-effect="non-scaling-stroke"><use xlink:href="#b1sAMyLK0J" opacity="1" fill="#000000" fill-opacity="1"></use><g><use xlink:href="#b1sAMyLK0J" opacity="1" fill-opacity="0" stroke="#000000" stroke-width="1" stroke-opacity="0"></use></g></g><g transform="matrix(1 0 0 1 0 0)" vector-effect="non-scaling-stroke"><use xlink:href="#bfCrE9ooX" opacity="1" fill="#000000" fill-opacity="1"></use><g><use xlink:href="#bfCrE9ooX" opacity="1" fill-opacity="0" stroke="#000000" stroke-width="1" stroke-opacity="0"></use></g></g></g></g></svg>